<svg xmlns="http://www.w3.org/2000/svg" width="24" height="24" viewBox="0 0 24 24" fill="none" stroke="currentColor" stroke-width="2" stroke-linecap="round" stroke-linejoin="round" class="lucide lucide-palette">
  <circle cx="13.5" cy="6.5" r="2.5"/>
  <path d="M19.44 17.55c.29-.45.31-.85.59-1.25.66-1 1.97-1.54 2.97-1.97-2-1.22-3.73-2.8-5-4.33-2.14-2.59-4.5-5-8-5a7 7 0 0 0-7 7c0 2 1 3.5 3 5s3.5 2 4 3c.17.35.28.75.28 1.16 0 2.24-2.78 4.84-5 4.84 2.72 0 7-2 10-3.5 3.5-1.5 3.5-2.5 5-2.5.7 0 2 .5 2 1.5"/>
</svg>